<svg width="56" height="56" viewBox="0 0 56 56" fill="none" xmlns="http://www.w3.org/2000/svg">
<g id="Frame 633800">
<circle id="Ellipse 115" cx="28" cy="28" r="28" fill="#F9F8F6"/>
<path id="Vector 241" d="M27 22L27 18.6667M27 18.6667L27 13.5215C27 12.8023 27.7365 12.3182 28.3967 12.6035L33.5132 14.8143C34.3661 15.1829 34.2992 16.4138 33.4114 16.6878L27 18.6667Z" stroke="#C5BBB8" stroke-width="2"/>
<path id="Union" d="M24.591 23H30.1426V21H24.591V23ZM17.5 28H19.591V26H17.5V28ZM16 38.5V29.5H14V38.5H16ZM38.5 40H17.5V42H38.5V40ZM40 29.5V38.5H42V29.5H40ZM35.1426 28H38.5V26H35.1426V28ZM35.1426 26C34.3142 26 33.6426 25.3284 33.6426 24.5H31.6426C31.6426 26.433 33.2096 28 35.1426 28V26ZM42 29.5C42 27.567 40.433 26 38.5 26V28C39.3284 28 40 28.6716 40 29.5H42ZM38.5 42C40.433 42 42 40.433 42 38.5H40C40 39.3284 39.3284 40 38.5 40V42ZM14 38.5C14 40.433 15.567 42 17.5 42V40C16.6716 40 16 39.3284 16 38.5H14ZM17.5 26C15.567 26 14 27.567 14 29.5H16C16 28.6716 16.6716 28 17.5 28V26ZM21.091 24.5C21.091 25.3284 20.4194 26 19.591 26V28C21.524 28 23.091 26.433 23.091 24.5H21.091ZM30.1426 23C30.9711 23 31.6426 23.6716 31.6426 24.5H33.6426C33.6426 22.567 32.0756 21 30.1426 21V23ZM24.591 21C22.658 21 21.091 22.567 21.091 24.5H23.091C23.091 23.6716 23.7625 23 24.591 23V21Z" fill="#C5BBB8"/>
<rect id="Rectangle 2402" x="25" y="34" width="5" height="7" rx="1" stroke="#C5BBB8" stroke-width="2"/>
</g>
</svg>
